<svg width="5" height="5" viewBox="0 0 5 5" fill="none" xmlns="http://www.w3.org/2000/svg">
<path d="M2.49752 4.944C2.10552 4.944 1.74552 4.852 1.41752 4.668C1.08952 4.476 0.825516 4.22 0.625516 3.9C0.425516 3.58 0.325516 3.22 0.325516 2.82C0.325516 2.452 0.417516 2.108 0.601516 1.788C0.793516 1.46 1.05352 1.196 1.38152 0.996C1.70952 0.788 2.08152 0.684 2.49752 0.684C2.88152 0.684 3.23752 0.776 3.56552 0.96C3.90152 1.144 4.16952 1.4 4.36952 1.728C4.56952 2.048 4.66952 2.412 4.66952 2.82C4.66952 3.212 4.56952 3.568 4.36952 3.888C4.17752 4.208 3.91752 4.464 3.58952 4.656C3.26152 4.848 2.89752 4.944 2.49752 4.944Z" fill="#A8ADB7"/>
</svg>
